# xmcd CD database file
#
# Track frame offsets:
#	150
#	44675
#	93360
#	125072
#	170782
#
# Disc length: 3197 seconds
#
# Revision: 1
# Processed by: cddbd v1.5.1PL2 Copyright (c) Steve Scherf et al.
# Submitted via: CDex 1.51
#
DISCID=460c7b05
DTITLE=Piero Odorici - Estate
DYEAR=2003
DGENRE=Jazz
TTITLE0=Reza
TTITLE1=Estate
TTITLE2=Ginger Bread Boy
TTITLE3=Limehouse Blues
TTITLE4=I thought about you
EXTD=YEAR: 2003
EXTT0=
EXTT1=
EXTT2=
EXTT3=
EXTT4=
PLAYORDER=
